<svg>
  <symbol id="story-svg" viewBox="0 0 34 32">
    <path d="M1.512 28h17.988c0.827 0 1.5-0.673 1.5-1.5v-19c0-0.023-0.010-0.043-0.013-0.065s-0.007-0.041-0.013-0.062c-0.023-0.086-0.060-0.166-0.122-0.227l-6.999-6.999c-0.061-0.061-0.141-0.098-0.227-0.122-0.021-0.006-0.040-0.010-0.062-0.013s-0.041-0.012-0.064-0.012h-11.994c-0.83 0-1.506 0.673-1.506 1.5v25c0 0.827 0.678 1.5 1.512 1.5zM14 1.707l5.293 5.293h-4.793c-0.275 0-0.5-0.224-0.5-0.5v-4.793zM1 1.5c0-0.276 0.227-0.5 0.506-0.5h11.494v5.5c0 0.827 0.673 1.5 1.5 1.5h5.5v18.5c0 0.276-0.225 0.5-0.5 0.5h-17.988c-0.283 0-0.512-0.224-0.512-0.5v-25zM4.5 12h12c0.276 0 0.5-0.224 0.5-0.5s-0.224-0.5-0.5-0.5h-12c-0.276 0-0.5 0.224-0.5 0.5s0.224 0.5 0.5 0.5zM4.5 16h12c0.276 0 0.5-0.224 0.5-0.5s-0.224-0.5-0.5-0.5h-12c-0.276 0-0.5 0.224-0.5 0.5s0.224 0.5 0.5 0.5zM4.5 8h5c0.276 0 0.5-0.224 0.5-0.5s-0.224-0.5-0.5-0.5h-5c-0.276 0-0.5 0.224-0.5 0.5s0.224 0.5 0.5 0.5zM4.5 20h12c0.276 0 0.5-0.224 0.5-0.5s-0.224-0.5-0.5-0.5h-12c-0.276 0-0.5 0.224-0.5 0.5s0.224 0.5 0.5 0.5zM4.5 24h12c0.276 0 0.5-0.224 0.5-0.5s-0.224-0.5-0.5-0.5h-12c-0.276 0-0.5 0.224-0.5 0.5s0.224 0.5 0.5 0.5zM21.5 5h4.5v5.5c0 0.827 0.673 1.5 1.5 1.5h5.5v18.5c0 0.276-0.225 0.5-0.5 0.5h-17.988c-0.283 0-0.512-0.224-0.512-0.5v-1c0-0.276-0.224-0.5-0.5-0.5s-0.5 0.224-0.5 0.5v1c0 0.827 0.678 1.5 1.512 1.5h17.988c0.827 0 1.5-0.673 1.5-1.5v-19c0-0.023-0.010-0.043-0.013-0.065s-0.007-0.041-0.013-0.062c-0.023-0.086-0.060-0.166-0.122-0.227l-6.999-6.999c-0.061-0.062-0.142-0.099-0.228-0.122-0.021-0.006-0.039-0.009-0.061-0.012s-0.041-0.013-0.064-0.013h-5c-0.276 0-0.5 0.224-0.5 0.5s0.224 0.5 0.5 0.5zM27.5 11c-0.275 0-0.5-0.224-0.5-0.5v-4.793l5.293 5.293h-4.793zM23.5 16h6c0.276 0 0.5-0.224 0.5-0.5s-0.224-0.5-0.5-0.5h-6c-0.276 0-0.5 0.224-0.5 0.5s0.224 0.5 0.5 0.5zM23.5 20h6c0.276 0 0.5-0.224 0.5-0.5s-0.224-0.5-0.5-0.5h-6c-0.276 0-0.5 0.224-0.5 0.5s0.224 0.5 0.5 0.5zM23.5 24h6c0.276 0 0.5-0.224 0.5-0.5s-0.224-0.5-0.5-0.5h-6c-0.276 0-0.5 0.224-0.5 0.5s0.224 0.5 0.5 0.5zM23.5 28h6c0.276 0 0.5-0.224 0.5-0.5s-0.224-0.5-0.5-0.5h-6c-0.276 0-0.5 0.224-0.5 0.5s0.224 0.5 0.5 0.5z"></path>
  </symbol>

  <symbol id="timeline-svg" viewBox="0 0 42 32">
    <path d="M39.5 6h-7.5c-1.927 0-1.998-1.797-2-2v-1c0-1.258-1.39-3-4-3h-9.969c-2.935 0-4 1.794-4 3v0.994c-0.001 0.082-0.048 2.006-2.031 2.006h-7.5c-1.379 0-2.5 1.122-2.5 2.5v18c0 1.378 1.121 2.5 2.5 2.5h6c0.276 0 0.5-0.224 0.5-0.5s-0.224-0.5-0.5-0.5h-6c-0.827 0-1.5-0.673-1.5-1.5v-12.5h8c-0.644 1.54-1 3.229-1 5 0 7.168 5.832 13 13 13s13-5.832 13-13c0-1.771-0.359-3.46-1.003-5h8.003v12.5c0 0.827-0.673 1.5-1.5 1.5h-7c-0.276 0-0.5 0.224-0.5 0.5s0.224 0.5 0.5 0.5h7c1.379 0 2.5-1.122 2.5-2.5v-18c0-1.378-1.121-2.5-2.5-2.5zM21 31c-6.617 0-12-5.383-12-12s5.383-12 12-12 12 5.383 12 12-5.383 12-12 12zM32.75 13c-0.074 0-0.143 0.018-0.206 0.047-2.164-4.179-6.522-7.047-11.544-7.047s-9.38 2.868-11.544 7.047c-0.063-0.029-0.132-0.047-0.206-0.047h-8.25v-4.5c0-0.827 0.673-1.5 1.5-1.5h7.5c2.368 0 3.019-1.958 3.031-3v-1c0-0.804 0.799-2 3-2h9.969c2.094 0 3 1.324 3 2v1c0 1.038 0.627 3 3 3h7.5c0.827 0 1.5 0.673 1.5 1.5v4.5h-8.25zM9.5 5c0.276 0 0.5-0.224 0.5-0.5v-1c0-0.827-0.673-1.5-1.5-1.5h-4c-0.827 0-1.5 0.673-1.5 1.5v1c0 0.276 0.224 0.5 0.5 0.5s0.5-0.224 0.5-0.5v-1c0-0.276 0.225-0.5 0.5-0.5h4c0.275 0 0.5 0.224 0.5 0.5v1c0 0.276 0.224 0.5 0.5 0.5zM21 10c-4.963 0-9 4.038-9 9s4.037 9 9 9 9-4.038 9-9-4.037-9-9-9zM21 27c-4.411 0-8-3.589-8-8s3.589-8 8-8 8 3.589 8 8-3.589 8-8 8z"></path>
  </symbol>

  <symbol id="info-svg" viewBox="0 0 32 32">
    <path class="path1" d="M14 9.5c0-0.825 0.675-1.5 1.5-1.5h1c0.825 0 1.5 0.675 1.5 1.5v1c0 0.825-0.675 1.5-1.5 1.5h-1c-0.825 0-1.5-0.675-1.5-1.5v-1z"></path>
    <path class="path2" d="M20 24h-8v-2h2v-6h-2v-2h6v8h2z"></path>
    <path class="path3" d="M16 0c-8.837 0-16 7.163-16 16s7.163 16 16 16 16-7.163 16-16-7.163-16-16-16zM16 29c-7.18 0-13-5.82-13-13s5.82-13 13-13 13 5.82 13 13-5.82 13-13 13z"></path>
  </symbol>

  <symbol id="icon-chevron-left" viewBox="0 0 24 24">
    <path class="path1" d="M14.414 5.586c-0.78-0.781-2.048-0.781-2.828 0l-6.415 6.414 6.415 6.414c0.39 0.391 0.902 0.586 1.414 0.586s1.024-0.195 1.414-0.586c0.781-0.781 0.781-2.047 0-2.828l-3.585-3.586 3.585-3.586c0.781-0.781 0.781-2.047 0-2.828z"></path>
  </symbol>

  <symbol id="icon-chevron-right" viewBox="0 0 24 24">
    <path class="path1" d="M8.586 5.586c-0.781 0.781-0.781 2.047 0 2.828l3.585 3.586-3.585 3.586c-0.781 0.781-0.781 2.047 0 2.828 0.39 0.391 0.902 0.586 1.414 0.586s1.024-0.195 1.414-0.586l6.415-6.414-6.415-6.414c-0.78-0.781-2.048-0.781-2.828 0z"></path>
  </symbol>
</svg>